# xmcd CD database file
#
# Track frame offsets:
#	150
#	18176
#	34050
#	54395
#	69643
#	89248
#	101768
#	118268
#	132805
#	155037
#	178357
#
# Disc length: 2717 seconds
#
# Revision: 0
# Processed by: cddbd v1.5.2PL0 Copyright (c) Steve Scherf et al.
# Submitted via: CDex 1.51
#
DISCID=9f0a9b0b
DTITLE=Latin Fire - Exodo Boricua
DYEAR=2003
DGENRE=Salsa
TTITLE0=Exodo Boricua
TTITLE1=Filomeno
TTITLE2=Waikiki-kiki
TTITLE3=Calor Caribeno
TTITLE4=La Otra Generacion
TTITLE5=Ronias De Paz
TTITLE6=Serenata Del Coqui
TTITLE7=Release My Soul
TTITLE8=Neuvo Amanecer
TTITLE9=No tiene Adios La Eternidad
TTITLE10=Contando Las Horas
EXTD=YEAR: 2003
EXTT0=
EXTT1=
EXTT2=
EXTT3=
EXTT4=
EXTT5=
EXTT6=
EXTT7=
EXTT8=
EXTT9=
EXTT10=
PLAYORDER=
